<svg xmlns="http://www.w3.org/2000/svg" viewBox="0 0 360 132" width="360" height="132">
  <rect x="2" y="2" width="356" height="128" rx="22" fill="#e5edf6" stroke="#9badbf" stroke-width="2"/>
  <rect x="22" y="18" width="316" height="56" rx="12" fill="#f4f8fc" stroke="#b5c4d4" stroke-width="1.5"/>
  <rect x="40" y="30" width="176" height="8" rx="4" fill="#8fa4b9"/>
  <rect x="40" y="47" width="236" height="8" rx="4" fill="#b6c4d3"/>
  <rect x="24" y="84" width="312" height="30" rx="10" fill="#edf3f9" stroke="#b5c4d4" stroke-width="1.5"/>
  <rect x="38" y="92" width="26" height="14" rx="4" fill="#a0b3c6"/>
  <rect x="70" y="92" width="26" height="14" rx="4" fill="#a0b3c6"/>
  <rect x="102" y="92" width="26" height="14" rx="4" fill="#a0b3c6"/>
  <rect x="134" y="92" width="26" height="14" rx="4" fill="#a0b3c6"/>
  <rect x="166" y="92" width="58" height="14" rx="4" fill="#90a6ba"/>
  <rect x="230" y="92" width="26" height="14" rx="4" fill="#a0b3c6"/>
  <rect x="262" y="92" width="26" height="14" rx="4" fill="#a0b3c6"/>
  <rect x="294" y="92" width="26" height="14" rx="4" fill="#a0b3c6"/>
</svg>
