<svg xmlns="http://www.w3.org/2000/svg" viewBox="0 0 1600 1000" role="img" aria-labelledby="title desc">
  <title id="title">Нейтральный визуал взрослого контура</title>
  <desc id="desc">Абстрактная аналитическая поверхность с карточками и графическими индикаторами.</desc>
  <defs>
    <linearGradient id="bg" x1="0" y1="0" x2="1" y2="1">
      <stop offset="0%" stop-color="#edf3f9" />
      <stop offset="100%" stop-color="#d4deea" />
    </linearGradient>
    <linearGradient id="panel" x1="0" y1="0" x2="1" y2="1">
      <stop offset="0%" stop-color="#f7fbff" />
      <stop offset="100%" stop-color="#e6eef7" />
    </linearGradient>
  </defs>
  <rect width="1600" height="1000" fill="url(#bg)" />
  <rect x="110" y="100" width="1380" height="800" rx="42" fill="#f2f7fc" stroke="#b9c6d5" stroke-width="10" />
  <rect x="180" y="170" width="340" height="300" rx="26" fill="url(#panel)" stroke="#c4d2e0" stroke-width="4" />
  <rect x="560" y="170" width="860" height="300" rx="26" fill="url(#panel)" stroke="#c4d2e0" stroke-width="4" />
  <rect x="180" y="510" width="540" height="310" rx="26" fill="url(#panel)" stroke="#c4d2e0" stroke-width="4" />
  <rect x="760" y="510" width="660" height="310" rx="26" fill="url(#panel)" stroke="#c4d2e0" stroke-width="4" />
  <polyline points="610,390 720,320 820,350 950,250 1060,290 1170,220 1320,280" fill="none" stroke="#8fa6ba" stroke-width="16" stroke-linecap="round" stroke-linejoin="round" />
  <circle cx="610" cy="390" r="12" fill="#8fa6ba" />
  <circle cx="820" cy="350" r="12" fill="#8fa6ba" />
  <circle cx="1060" cy="290" r="12" fill="#8fa6ba" />
  <circle cx="1320" cy="280" r="12" fill="#8fa6ba" />
  <rect x="230" y="560" width="440" height="34" rx="12" fill="#cedae7" />
  <rect x="230" y="620" width="370" height="34" rx="12" fill="#d8e3ee" />
  <rect x="230" y="680" width="400" height="34" rx="12" fill="#cedae7" />
  <rect x="840" y="590" width="90" height="180" rx="16" fill="#cdd9e6" />
  <rect x="960" y="560" width="90" height="210" rx="16" fill="#bdcddd" />
  <rect x="1080" y="630" width="90" height="140" rx="16" fill="#cdd9e6" />
  <rect x="1200" y="540" width="90" height="230" rx="16" fill="#adc1d4" />
</svg>
