<svg xmlns="http://www.w3.org/2000/svg" viewBox="0 0 1600 1000" width="1600" height="1000">
  <rect width="1600" height="1000" fill="#e2eaf3" />
  <rect x="110" y="100" width="1380" height="800" rx="42" fill="#f4f8fc" stroke="#b9c6d5" stroke-width="10" />
  <rect x="180" y="170" width="340" height="300" rx="26" fill="#edf3f9" stroke="#c4d2e0" stroke-width="4" />
  <rect x="560" y="170" width="860" height="300" rx="26" fill="#edf3f9" stroke="#c4d2e0" stroke-width="4" />
  <rect x="180" y="510" width="540" height="310" rx="26" fill="#edf3f9" stroke="#c4d2e0" stroke-width="4" />
  <rect x="760" y="510" width="660" height="310" rx="26" fill="#edf3f9" stroke="#c4d2e0" stroke-width="4" />

  <polyline points="610,390 720,320 820,350 950,250 1060,290 1170,220 1320,280" fill="none" stroke="#8fa6ba" stroke-width="16" stroke-linecap="round" stroke-linejoin="round" />
  <circle cx="610" cy="390" r="12" fill="#8fa6ba" />
  <circle cx="820" cy="350" r="12" fill="#8fa6ba" />
  <circle cx="1060" cy="290" r="12" fill="#8fa6ba" />
  <circle cx="1320" cy="280" r="12" fill="#8fa6ba" />

  <rect x="230" y="560" width="440" height="34" rx="12" fill="#cedae7" />
  <rect x="230" y="620" width="370" height="34" rx="12" fill="#d8e3ee" />
  <rect x="230" y="680" width="400" height="34" rx="12" fill="#cedae7" />

  <rect x="840" y="590" width="90" height="180" rx="16" fill="#cdd9e6" />
  <rect x="960" y="560" width="90" height="210" rx="16" fill="#bdcddd" />
  <rect x="1080" y="630" width="90" height="140" rx="16" fill="#cdd9e6" />
  <rect x="1200" y="540" width="90" height="230" rx="16" fill="#adc1d4" />
</svg>
