<svg xmlns="http://www.w3.org/2000/svg" viewBox="0 0 1600 1000" width="1600" height="1000">
  <rect width="1600" height="1000" fill="#e3eaf2" />
  <rect x="130" y="90" width="1340" height="820" rx="38" fill="#edf3f9" stroke="#b6c4d3" stroke-width="10" />
  <rect x="200" y="160" width="1200" height="680" rx="28" fill="#f7fbff" stroke="#c7d4e2" stroke-width="4" />

  <path d="M290 160V840" stroke="#cfdae7" stroke-width="2" />
  <path d="M380 160V840" stroke="#cfdae7" stroke-width="2" />
  <path d="M470 160V840" stroke="#cfdae7" stroke-width="2" />
  <path d="M560 160V840" stroke="#cfdae7" stroke-width="2" />
  <path d="M650 160V840" stroke="#cfdae7" stroke-width="2" />
  <path d="M740 160V840" stroke="#cfdae7" stroke-width="2" />
  <path d="M830 160V840" stroke="#cfdae7" stroke-width="2" />
  <path d="M920 160V840" stroke="#cfdae7" stroke-width="2" />
  <path d="M1010 160V840" stroke="#cfdae7" stroke-width="2" />
  <path d="M1100 160V840" stroke="#cfdae7" stroke-width="2" />
  <path d="M1190 160V840" stroke="#cfdae7" stroke-width="2" />
  <path d="M1280 160V840" stroke="#cfdae7" stroke-width="2" />

  <path d="M200 250H1400" stroke="#cfdae7" stroke-width="2" />
  <path d="M200 340H1400" stroke="#cfdae7" stroke-width="2" />
  <path d="M200 430H1400" stroke="#cfdae7" stroke-width="2" />
  <path d="M200 520H1400" stroke="#cfdae7" stroke-width="2" />
  <path d="M200 610H1400" stroke="#cfdae7" stroke-width="2" />
  <path d="M200 700H1400" stroke="#cfdae7" stroke-width="2" />
  <path d="M200 790H1400" stroke="#cfdae7" stroke-width="2" />

  <rect x="250" y="210" width="80" height="80" rx="18" fill="#8aa0b4" opacity="0.88" />
  <rect x="430" y="300" width="80" height="80" rx="18" fill="#8aa0b4" opacity="0.74" />
  <rect x="610" y="390" width="80" height="80" rx="18" fill="#8aa0b4" opacity="0.88" />
  <rect x="790" y="480" width="80" height="80" rx="18" fill="#8aa0b4" opacity="0.74" />
  <rect x="970" y="570" width="80" height="80" rx="18" fill="#8aa0b4" opacity="0.88" />
  <rect x="1150" y="660" width="80" height="80" rx="18" fill="#8aa0b4" opacity="0.74" />
</svg>
